<svg xmlns="http://www.w3.org/2000/svg" xmlns:xlink="http://www.w3.org/1999/xlink" width="36" height="36" viewBox="0 0 36 36"><defs><clipPath id="b"><rect width="36" height="36"/></clipPath></defs><g id="a" clip-path="url(#b)"><g transform="translate(0.519 -1)"><g transform="translate(0 6.338)"><path d="M34.288,245.919a4.931,4.931,0,1,1-4.931-4.932A4.931,4.931,0,0,1,34.288,245.919Zm0,0" transform="translate(-22.727 -229.826)" fill="rgba(255,255,255,0.47)"/><path d="M6.63,382.805A6.63,6.63,0,0,0,0,389.435v1.312a1.043,1.043,0,0,0,1.043,1.043H12.217a1.043,1.043,0,0,0,1.043-1.043v-1.312a6.63,6.63,0,0,0-6.63-6.63Zm0,0" transform="translate(0 -361.78)" fill="rgba(255,255,255,0.47)"/></g><g transform="translate(13.72)"><path d="M.711,7.927c1.9,1.129,6.564,3.9,8.893,5.234a1.867,1.867,0,0,0,1.868,0c2.329-1.335,6.994-4.1,8.892-5.234a1.4,1.4,0,0,0,0-2.443C18.9,4.611,13.923,1.656,11.471.25A1.855,1.855,0,0,0,10.538,0,1.941,1.941,0,0,0,9.6.253S2.931,4.169.712,5.483a1.405,1.405,0,0,0,0,2.444Z" transform="translate(0 1)" fill="rgba(255,255,255,0.47)"/><path d="M20.381,206.241a.475.475,0,0,0-.494,0c-2.579,1.531-6.049,3.584-7.939,4.666a2.872,2.872,0,0,1-2.821,0c-1.907-1.094-5.371-3.141-7.94-4.667a.478.478,0,0,0-.495,0,1.4,1.4,0,0,0,.018,2.43c1.9,1.129,6.564,3.9,8.893,5.234a1.867,1.867,0,0,0,1.868,0c2.329-1.335,6.994-4.1,8.892-5.234a1.4,1.4,0,0,0,.017-2.43Z" transform="translate(0 -194.993)" fill="rgba(255,255,255,0.47)"/><path d="M20.381,291.582a.477.477,0,0,0-.494,0c-2.579,1.531-6.049,3.583-7.939,4.666a2.872,2.872,0,0,1-2.821,0c-1.907-1.094-5.371-3.141-7.94-4.667a.48.48,0,0,0-.495,0,1.4,1.4,0,0,0,.018,2.43c1.9,1.129,6.564,3.9,8.893,5.234a1.867,1.867,0,0,0,1.868,0c2.329-1.335,6.994-4.1,8.892-5.234a1.4,1.4,0,0,0,.017-2.43Z" transform="translate(0 -275.708)" fill="rgba(255,255,255,0.47)"/></g></g></g></svg>