<svg xmlns="http://www.w3.org/2000/svg" xmlns:xlink="http://www.w3.org/1999/xlink" width="36" height="36" viewBox="0 0 36 36"><defs><clipPath id="b"><rect width="36" height="36"/></clipPath></defs><g id="a" clip-path="url(#b)"><g transform="translate(-0.398 0)"><path d="M-2861.554,1112.746a1.049,1.049,0,0,1-1.048-1.045v-20.113a4.4,4.4,0,0,1,4.395-4.4h13.409a4.4,4.4,0,0,1,4.4,4.4V1105a4.4,4.4,0,0,1-4.4,4.395h-11.944l-4.191,3.144A1.024,1.024,0,0,1-2861.554,1112.746Zm10.038-11.988a1.041,1.041,0,0,0-1.052,1.053,1.053,1.053,0,0,0,1.052,1.052,1.073,1.073,0,0,0,1.039-1.052A1.06,1.06,0,0,0-2851.516,1100.758Zm-.014-7.967c-.6,0-1,.335-1,.833,0,.816.048,1.822.1,2.795v.009c.047.971.095,1.975.095,2.786,0,.376.3.6.806.6.306,0,.792-.163.792-.6,0-.811.049-1.816.1-2.788v-.015c.047-.972.1-1.976.1-2.787A.878.878,0,0,0-2851.53,1092.791Z" transform="translate(2876.011 -1087.192)" fill="rgba(255,255,255,0.47)"/><path d="M34.288,245.919a4.931,4.931,0,1,1-4.931-4.932A4.931,4.931,0,0,1,34.288,245.919Zm0,0" transform="translate(-22.727 -224.228)" fill="rgba(255,255,255,0.47)"/><path d="M6.63,382.805A6.63,6.63,0,0,0,0,389.435v1.312a1.043,1.043,0,0,0,1.043,1.043H12.217a1.043,1.043,0,0,0,1.043-1.043v-1.312a6.63,6.63,0,0,0-6.63-6.63Zm0,0" transform="translate(0 -356.182)" fill="rgba(255,255,255,0.47)"/></g></g></svg>