<svg xmlns="http://www.w3.org/2000/svg" xmlns:xlink="http://www.w3.org/1999/xlink" width="36" height="36" viewBox="0 0 36 36"><defs><clipPath id="b"><rect width="36" height="36"/></clipPath></defs><g id="a" clip-path="url(#b)"><g transform="translate(0.017)"><path d="M210.605,0H197.2a4.393,4.393,0,0,0-4.4,4.4V24.508a1.044,1.044,0,0,0,1.669.835l4.191-3.143H210.6a4.393,4.393,0,0,0,4.4-4.4V4.395A4.393,4.393,0,0,0,210.6,0Zm-6.7,17.171a1.043,1.043,0,1,1,1.043-1.043A1.044,1.044,0,0,1,203.9,17.171Zm1.043-4.614v.218a1.043,1.043,0,1,1-2.086,0V11.658a1.043,1.043,0,0,1,1.043-1.043,1.75,1.75,0,1,0-1.75-1.751,1.043,1.043,0,1,1-2.086,0h0a3.837,3.837,0,1,1,4.88,3.694Zm0,0" transform="translate(-179.392 0)" fill="rgba(255,255,255,0.47)"/><path d="M34.288,245.919a4.931,4.931,0,1,1-4.931-4.932A4.931,4.931,0,0,1,34.288,245.919Zm0,0" transform="translate(-22.727 -224.228)" fill="rgba(255,255,255,0.47)"/><path d="M6.63,382.805A6.63,6.63,0,0,0,0,389.435v1.312a1.043,1.043,0,0,0,1.043,1.043H12.217a1.043,1.043,0,0,0,1.043-1.043v-1.312a6.63,6.63,0,0,0-6.63-6.63Zm0,0" transform="translate(0 -356.182)" fill="rgba(255,255,255,0.47)"/></g></g></svg>