<svg xmlns="http://www.w3.org/2000/svg" xmlns:xlink="http://www.w3.org/1999/xlink" width="45" height="46" viewBox="0 0 45 46"><defs><clipPath id="a"><path d="M193.939,125.139a21.1,21.1,0,1,1-21.1-21.1A21.1,21.1,0,0,1,193.939,125.139Z" transform="translate(-151.734 -104.037)" fill="#23ad9b"/></clipPath><clipPath id="c"><rect width="45" height="46"/></clipPath></defs><g id="b" clip-path="url(#c)"><g transform="translate(-149.837 -102.139)"><g transform="translate(151.734 104.037)"><path d="M193.939,125.139a21.1,21.1,0,1,1-21.1-21.1A21.1,21.1,0,0,1,193.939,125.139Z" transform="translate(-151.734 -104.037)" fill="#23ad9b"/><g clip-path="url(#a)"><g transform="translate(5.721 2.905)"><g transform="translate(4.586 17.934)"><g transform="translate(18.232)"><path d="M224.452,156.084a1.517,1.517,0,0,0-1.682,1.333l-.252,2.182a1.518,1.518,0,0,0,3.017.349l.251-2.185A1.515,1.515,0,0,0,224.452,156.084Z" transform="translate(-222.508 -155.929)" fill="#fcb590"/><path d="M224.605,155.728a1.649,1.649,0,0,0-.967.183l-.043.368a1.371,1.371,0,0,1,2.185,1.256l-.251,2.182A1.375,1.375,0,0,1,223,160.3a.142.142,0,0,0-.2-.045.144.144,0,0,0-.045.2,1.662,1.662,0,0,0,3.055-.7l.25-2.182A1.663,1.663,0,0,0,224.605,155.728Z" transform="translate(-222.645 -155.716)" fill="#e59776"/><path d="M226.293,158.564a1.066,1.066,0,0,0-.487-.144c-.735-.05-1.327,1.184-.593,1.4a.484.484,0,0,1-.01.633,1.568,1.568,0,0,0-.514,1.151c.044.25.3.385.531.447.184.049.221-.108.073-.184a.827.827,0,0,1-.279-.249c-.007-.015-.014-.029-.023-.043a.17.17,0,0,1-.017-.032.289.289,0,0,1-.008-.183.421.421,0,0,0,.569-.008c.139-.182.034-.468.083-.675a1.622,1.622,0,0,1,.169-.415c.338-.613-.27-.716-.27-.716a1.964,1.964,0,0,0-.223.019c-.308-.175.035-.677.222-.756a.552.552,0,0,1,.642.119,1.056,1.056,0,0,1,.2.706,2.468,2.468,0,0,1-.2.849c-.066.15-.15.328-.217.48-.076.171.108.246.184.073a5.267,5.267,0,0,0,.523-1.394A1.109,1.109,0,0,0,226.293,158.564Z" transform="translate(-223.803 -157.329)" fill="#e59776"/></g><path d="M178.995,156.084a1.517,1.517,0,0,1,1.682,1.333l.25,2.182a1.518,1.518,0,0,1-3.016.349l-.25-2.185A1.516,1.516,0,0,1,178.995,156.084Z" transform="translate(-177.507 -155.929)" fill="#fcb590"/><path d="M178.767,155.728a1.649,1.649,0,0,1,.967.183l.042.368a1.37,1.37,0,0,0-2.184,1.256l.25,2.182a1.376,1.376,0,0,0,2.529.579.142.142,0,0,1,.2-.045.144.144,0,0,1,.044.2,1.662,1.662,0,0,1-3.055-.7l-.25-2.182A1.662,1.662,0,0,1,178.767,155.728Z" transform="translate(-177.295 -155.716)" fill="#e59776"/><path d="M179.075,158.564a1.061,1.061,0,0,1,.487-.144c.736-.05,1.327,1.184.593,1.4a.484.484,0,0,0,.01.633,1.571,1.571,0,0,1,.515,1.151.66.66,0,0,1-.532.447c-.185.049-.221-.108-.073-.184a.827.827,0,0,0,.279-.249c.007-.015.015-.029.022-.043a.135.135,0,0,0,.018-.032.3.3,0,0,0,.008-.183.423.423,0,0,1-.571-.008c-.139-.182-.034-.468-.081-.675a1.653,1.653,0,0,0-.169-.415c-.338-.613.27-.716.27-.716a1.971,1.971,0,0,1,.223.019c.308-.175-.035-.677-.223-.756a.551.551,0,0,0-.642.119,1.056,1.056,0,0,0-.2.706,2.512,2.512,0,0,0,.2.849c.067.15.151.328.219.48.077.171-.107.246-.184.073a5.267,5.267,0,0,1-.523-1.394A1.106,1.106,0,0,1,179.075,158.564Z" transform="translate(-178.134 -157.329)" fill="#e59776"/></g><rect width="5.011" height="4.241" transform="translate(12.911 29.731)" fill="#fcb590"/><path d="M202.952,186.325v-1.352h-5.011v3.259C198.774,186.438,200.932,186.394,202.952,186.325Z" transform="translate(-185.03 -155.242)" fill="#facbc8" style="mix-blend-mode:multiply;isolation:isolate"/><path d="M190.962,119.212h-.242c-6.1.054-9.561,1.24-8.626,12.352l.459,10.074a2.651,2.651,0,0,0,1.353,2.184L188.452,146a4.847,4.847,0,0,0,4.778,0l3.941-1.783a3.678,3.678,0,0,0,1.957-2.582l.582-9.633C200.645,120.892,197.058,119.266,190.962,119.212Z" transform="translate(-175.482 -115.998)" fill="#fcb590"/><path d="M193.468,196.411l-9.772-3.24h-4.78l-9.772,3.24s-3.792,1.181-3.148,7.112h30.621C197.235,196.972,193.468,196.411,193.468,196.411Z" transform="translate(-165.922 -160.134)" fill="#fcb590"/><path d="M185.9,194.982l7.569,2.51s3.767.561,3.148,7.112H166c-.644-5.931,3.148-7.112,3.148-7.112l7.454-2.51A7.061,7.061,0,0,0,185.9,194.982Z" transform="translate(-165.922 -161.215)" fill="#1c303d"/><g transform="translate(8.972 12.621)"><path d="M199.421,165.044l.567.073.261.032c.089.015.187.014.284.029.2.014.4.033.6.032a5.27,5.27,0,0,0,.6-.017c.192-.014.376-.033.535-.061s.3-.048.4-.066.164-.021.164-.021-.035.048-.106.126a1.461,1.461,0,0,1-.33.284,1.17,1.17,0,0,1-.254.145,1.686,1.686,0,0,1-.307.12,2.26,2.26,0,0,1-.709.1,2.42,2.42,0,0,1-1.257-.373A1.562,1.562,0,0,1,199.421,165.044Z" transform="translate(-194.885 -155.97)" fill="#e68e68"/><g transform="translate(3.653 11.989)"><path d="M197.381,172.835a5.923,5.923,0,0,0,4.936,0c.352-.167.045-.688-.306-.522a5.314,5.314,0,0,1-4.325,0c-.342-.188-.647.334-.305.522Z" transform="translate(-197.231 -172.272)" fill="#e6836c"/><g transform="translate(1.831 1.466)"><path d="M202.074,176.515a2.752,2.752,0,0,0,1.046-.01.3.3,0,0,0-.161-.583,2.365,2.365,0,0,1-.886-.011.3.3,0,0,0-.3.3.309.309,0,0,0,.3.3Z" transform="translate(-201.772 -175.909)" fill="#e98f70"/></g></g><g transform="translate(8.014)"><path d="M211.967,151.137c0,.727.394,1.317.878,1.317s.878-.59.878-1.317-.393-1.317-.878-1.317S211.967,150.41,211.967,151.137Z" transform="translate(-210.386 -146.885)" fill="#1b0d05"/><path d="M215.073,151.284a.418.418,0,1,0,.419-.419A.418.418,0,0,0,215.073,151.284Z" transform="translate(-212.24 -147.508)" fill="#fff"/><path d="M212.236,143.979a.284.284,0,0,1-.379.14,3.819,3.819,0,0,0-3.153,0,.284.284,0,0,1-.379-.14l-.256-.576a.345.345,0,0,1,.21-.431,4.847,4.847,0,0,1,4,0,.345.345,0,0,1,.21.431Z" transform="translate(-208.047 -142.54)" fill="#3e211d"/></g><path d="M192.73,151.137c0,.727-.394,1.317-.879,1.317s-.877-.59-.877-1.317.393-1.317.877-1.317S192.73,150.41,192.73,151.137Z" transform="translate(-189.844 -146.885)" fill="#1b0d05"/><path d="M190.986,151.284a.419.419,0,1,1-.419-.419A.418.418,0,0,1,190.986,151.284Z" transform="translate(-189.351 -147.508)" fill="#fff"/><path d="M188.451,143.979a.283.283,0,0,0,.378.14,3.82,3.82,0,0,1,3.153,0,.284.284,0,0,0,.379-.14l.256-.576a.345.345,0,0,0-.21-.431,4.846,4.846,0,0,0-4,0,.346.346,0,0,0-.21.431Z" transform="translate(-188.172 -142.54)" fill="#3e211d"/></g><path d="M178.5,129.241l.6.041s.3-.123.479.794h.754v-6.559a4.342,4.342,0,0,1,4.362-3.816s8.749,2.794,12.173-.436c0,0,2.242-2.024.7-5.742a2.291,2.291,0,0,1-3.828.768s-4.515-6.315-13.085-.768a5.477,5.477,0,0,0-1.894,4.664,2.433,2.433,0,0,0-1.307,2.479Z" transform="translate(-172.803 -111.242)" fill="#3e211d"/><path d="M219.192,130.267c1.352.679,1.416,3.119,1.416,3.119v6.559h.755c.174-.917.479-.794.479-.794l.6-.041,1.044-8.575a2.433,2.433,0,0,0-1.306-2.479S219.273,126.621,219.192,130.267Z" transform="translate(-197.712 -121.109)" fill="#3e211d"/></g></g></g></g></g></svg>