<svg xmlns="http://www.w3.org/2000/svg" xmlns:xlink="http://www.w3.org/1999/xlink" width="31" height="30" viewBox="0 0 31 30"><defs><clipPath id="b"><rect width="31" height="30"/></clipPath></defs><g id="a" clip-path="url(#b)"><rect width="31" height="30" fill="#fff"/><g transform="translate(2.036 3.5)"><path d="M8.737,15.789H23a.787.787,0,0,0,.759-.573L26.916,4.164a.788.788,0,0,0-.759-1.006H6.914L6.35.618A.789.789,0,0,0,5.579,0H.789a.789.789,0,1,0,0,1.579H4.945L7.8,14.408a2.367,2.367,0,0,0,.941,4.54H23a.789.789,0,1,0,0-1.579H8.737a.789.789,0,1,1,0-1.579Zm0,0" fill="#c5c6cb"/><path d="M151,362.372A2.368,2.368,0,1,0,153.369,360,2.371,2.371,0,0,0,151,362.372Zm0,0" transform="translate(-143.053 -341.057)" fill="#c5c6cb"/><path d="M362,362.372A2.368,2.368,0,1,0,364.372,360,2.371,2.371,0,0,0,362,362.372Zm0,0" transform="translate(-342.952 -341.057)" fill="#c5c6cb"/></g></g></svg>