<svg xmlns="http://www.w3.org/2000/svg" xmlns:xlink="http://www.w3.org/1999/xlink" width="69" height="58" viewBox="0 0 69 58"><defs><linearGradient id="a" x1="0.5" y1="0.148" x2="0.5" y2="1.001" gradientUnits="objectBoundingBox"><stop offset="0" stop-color="#26b797"/><stop offset="1" stop-color="#1471ab"/></linearGradient><linearGradient id="b" x1="0.5" y1="-0.118" x2="0.5" y2="1.001" xlink:href="#a"/><linearGradient id="c" x1="0.5" y1="-4.786" x2="0.5" y2="1.005" xlink:href="#a"/><linearGradient id="d" x1="0.5" y1="-0.109" x2="0.5" y2="1.001" xlink:href="#a"/><linearGradient id="e" x1="0.5" y1="-0.85" x2="0.5" y2="1.002" xlink:href="#a"/><linearGradient id="f" x1="0.5" y1="-4.724" x2="0.5" y2="1.005" xlink:href="#a"/><linearGradient id="g" x1="0.5" y1="-0.864" x2="0.5" y2="1.002" xlink:href="#a"/><clipPath id="i"><rect width="69" height="58"/></clipPath></defs><g id="h" clip-path="url(#i)"><g transform="translate(0.001 0)"><path d="M455.935,412.324l-2.812,2.952v54.441h5.616V415.276Z" transform="translate(-421.236 -412.324)" fill="url(#a)"/><path d="M474.761,438.844l-5.616-5.906v43.712h5.616Z" transform="translate(-426.625 -419.257)" fill="url(#b)"/><path d="M501.176,494.521h5.616v-2.546l-5.616-5.9Z" transform="translate(-437.398 -437.128)" fill="url(#c)"/><path d="M442.724,432.358l-5.616,5.905v38.192h5.616Z" transform="translate(-415.849 -419.062)" fill="url(#d)"/><path d="M426.708,458.992l-5.616,5.906v20.515h5.616Z" transform="translate(-410.463 -428.02)" fill="url(#e)"/><path d="M410.692,485.933l-5.616,5.9v2.639h5.616Z" transform="translate(-405.076 -437.081)" fill="url(#f)"/><path d="M490.776,465.184l-5.616-5.906V485.51h5.616Z" transform="translate(-432.011 -428.117)" fill="url(#g)"/></g></g></svg>