<svg xmlns="http://www.w3.org/2000/svg" xmlns:xlink="http://www.w3.org/1999/xlink" width="19" height="20" viewBox="0 0 19 20">
  <defs>
    <clipPath id="clip-Search-icon">
      <rect width="19" height="20"/>
    </clipPath>
  </defs>
  <g id="Search-icon" clip-path="url(#clip-Search-icon)">
    <path id="Path_1618" data-name="Path 1618" d="M-12.007-12.794a4.364,4.364,0,0,1-4.359,4.359,4.364,4.364,0,0,1-4.359-4.359,4.364,4.364,0,0,1,4.359-4.359A4.364,4.364,0,0,1-12.007-12.794ZM-7.025-4.7a1.253,1.253,0,0,0-.36-.876l-3.337-3.337a6.833,6.833,0,0,0,1.206-3.882,6.847,6.847,0,0,0-6.849-6.849,6.847,6.847,0,0,0-6.849,6.849,6.847,6.847,0,0,0,6.849,6.849,6.833,6.833,0,0,0,3.882-1.206l3.337,3.327a1.221,1.221,0,0,0,.876.37A1.254,1.254,0,0,0-7.025-4.7Z" transform="translate(24.714 21.395)" fill="#fff"/>
  </g>
</svg>
